<?xml version="1.0" standalone="no"?>
<!DOCTYPE svg PUBLIC "-//W3C//DTD SVG 20010904//EN"
 "http://www.w3.org/TR/2001/REC-SVG-20010904/DTD/svg10.dtd">
<svg version="1.0" xmlns="http://www.w3.org/2000/svg"
 width="1665.000000pt" height="1665.000000pt" viewBox="0 0 1665.000000 1665.000000"
 preserveAspectRatio="xMidYMid meet">
<metadata>
Created by potrace 1.11, written by Peter Selinger 2001-2013
</metadata>
<g transform="translate(0.000000,1665.000000) scale(0.100000,-0.100000)"
fill="#000000" stroke="none">
<path d="M11667 13564 c-1 -1 -33 -5 -72 -9 -38 -3 -79 -8 -90 -10 -11 -2 -47
-7 -80 -10 -59 -5 -119 -12 -181 -20 -17 -3 -57 -7 -90 -10 -32 -3 -75 -8 -94
-11 -19 -3 -60 -7 -90 -10 -30 -2 -73 -7 -95 -10 -22 -2 -56 -7 -75 -9 -154
-18 -129 -5 -345 -168 -110 -83 -204 -155 -210 -159 -5 -5 -46 -36 -90 -69
-56 -43 -79 -66 -77 -79 2 -10 -10 -58 -27 -107 -16 -48 -31 -97 -33 -108 -2
-11 -6 -22 -9 -25 -3 -3 -30 -77 -58 -165 -29 -88 -56 -169 -61 -180 -5 -11
-30 -83 -55 -160 -47 -138 -60 -166 -197 -414 -37 -69 -64 -127 -59 -130 5 -3
-18 -53 -51 -111 -33 -58 -74 -132 -91 -165 -18 -33 -35 -61 -39 -63 -5 -2 -8
-10 -8 -17 0 -7 -14 -28 -32 -46 -18 -19 -40 -50 -49 -69 -9 -19 -35 -64 -57
-99 -23 -35 -42 -68 -42 -73 0 -4 -12 -21 -26 -37 -14 -16 -25 -32 -24 -36 0
-3 -10 -15 -24 -26 -15 -11 -26 -27 -26 -35 0 -8 -5 -14 -11 -14 -5 0 -17 -16
-25 -35 -8 -19 -19 -35 -24 -35 -6 0 -10 -5 -10 -12 0 -35 -130 -111 -177
-103 -10 1 -24 -2 -31 -8 -14 -11 -29 2 -186 158 -127 126 -426 367 -605 488
-97 64 -169 117 -161 117 8 0 -16 16 -54 36 -39 19 -76 40 -83 46 -7 6 -13 7
-13 2 0 -5 -4 -4 -8 1 -10 14 -100 58 -118 58 -7 0 -14 3 -14 7 0 6 -75 35
-92 35 -3 0 -10 3 -14 8 -4 4 -16 7 -26 7 -10 0 -18 4 -18 8 0 4 -9 8 -21 9
-11 1 -53 17 -92 36 -40 19 -98 43 -130 52 -32 10 -60 21 -62 25 -3 4 -35 23
-72 41 -38 18 -69 37 -71 41 -2 4 -9 8 -16 8 -7 0 -39 17 -72 38 -69 43 -144
82 -166 85 -8 2 -27 10 -41 20 -15 9 -31 17 -36 17 -6 0 -27 9 -46 20 -20 11
-44 22 -53 24 -38 7 -127 48 -174 79 -16 10 -28 16 -28 13 0 -3 -22 8 -49 24
-27 17 -86 43 -132 58 -72 24 -217 82 -349 139 -32 14 -322 112 -345 117 -5 1
-23 9 -40 18 -23 12 -67 16 -194 17 -90 1 -166 2 -170 3 -3 0 -8 -1 -11 -2
-15 -5 -55 -10 -139 -14 -51 -3 -99 -10 -105 -15 -9 -7 -177 -56 -227 -66 -8
-2 -69 -17 -135 -35 -65 -17 -126 -33 -135 -35 -9 -2 -32 -8 -52 -13 -24 -7
-39 -6 -46 1 -8 8 -11 8 -11 0 0 -6 -8 -10 -17 -9 -10 2 -33 -1 -53 -6 -19 -5
-46 -11 -60 -14 -14 -3 -33 -7 -42 -10 -9 -3 -27 -7 -40 -10 -32 -7 -39 -9
-71 -22 -16 -7 -33 -12 -38 -12 -5 0 -9 -5 -9 -11 0 -5 -4 -7 -10 -4 -5 3 -10
1 -10 -4 0 -6 -3 -10 -7 -9 -5 1 -18 -3 -30 -10 -13 -7 -23 -10 -23 -6 0 3 -6
1 -13 -5 -8 -6 -17 -8 -20 -4 -4 3 -7 1 -7 -5 0 -8 -41 -28 -80 -37 -3 -1 -18
-8 -35 -15 -16 -7 -34 -12 -39 -11 -5 1 -13 -4 -17 -11 -5 -7 -14 -13 -21 -13
-17 -1 -92 -38 -96 -47 -2 -5 -11 -8 -20 -8 -9 0 -40 -15 -69 -33 -47 -29
-128 -126 -204 -242 -22 -34 -25 -56 -6 -50 6 2 26 7 42 9 17 3 44 12 60 20
17 8 89 33 161 56 114 36 133 40 157 29 15 -7 27 -16 27 -20 0 -8 -45 -47
-130 -111 -30 -24 -57 -45 -60 -48 -3 -3 -23 -19 -45 -35 -22 -17 -42 -32 -45
-35 -3 -3 -52 -43 -110 -89 -58 -47 -104 -88 -103 -93 3 -7 -14 -24 -112 -113
-16 -16 -86 -81 -155 -145 -69 -64 -154 -144 -190 -176 -36 -32 -137 -132
-226 -221 -119 -120 -170 -179 -194 -225 -19 -35 -99 -153 -179 -263 -80 -110
-171 -246 -202 -303 -32 -56 -64 -109 -72 -117 -14 -13 -68 -101 -160 -260
-22 -38 -64 -110 -94 -159 -29 -48 -53 -90 -53 -92 0 -2 -25 -44 -54 -93 -78
-127 -87 -147 -111 -233 l-22 -76 26 -5 c14 -3 33 -2 41 3 8 4 33 6 55 4 63
-5 66 -6 54 -20 -7 -8 -6 -14 3 -18 10 -5 10 -7 1 -12 -7 -3 -13 -12 -13 -20
0 -8 -4 -14 -8 -14 -8 0 -83 -107 -107 -151 -5 -11 -13 -19 -16 -19 -4 0 -17
-21 -30 -47 -27 -57 -119 -195 -151 -226 -13 -12 -41 -44 -63 -72 -22 -27 -42
-52 -45 -55 -3 -3 -33 -39 -65 -80 -32 -41 -62 -77 -65 -80 -18 -16 -70 -90
-63 -90 4 0 1 -4 -7 -10 -8 -5 -12 -12 -8 -15 5 -6 62 13 258 87 19 7 37 16
40 19 18 22 130 13 138 -11 2 -5 8 -8 12 -5 5 3 12 0 16 -6 4 -8 3 -9 -5 -5
-12 8 -9 -17 9 -75 6 -20 3 -32 -13 -51 -69 -79 -134 -152 -144 -163 -7 -7 -9
-15 -6 -19 4 -3 1 -6 -5 -6 -15 0 -56 -70 -46 -79 5 -5 101 28 212 73 201 81
204 82 249 136 25 30 67 80 93 110 26 30 64 75 84 100 20 25 41 51 47 58 5 7
12 20 14 30 2 9 11 37 20 62 9 25 20 90 25 145 7 93 30 165 52 165 12 0 29
-38 19 -44 -7 -5 -8 -41 -1 -41 1 0 2 -20 4 -45 7 -108 40 -113 112 -16 25 33
51 68 57 76 7 8 26 33 42 55 17 22 35 45 40 51 6 6 19 23 30 39 11 15 29 39
41 54 16 21 153 201 186 246 30 41 57 67 51 51 -4 -13 -3 -17 5 -12 7 4 12 14
12 23 0 22 37 80 57 87 25 10 27 0 7 -41 -10 -21 -19 -40 -20 -43 -6 -25 -32
-69 -37 -63 -4 3 -7 -3 -7 -13 0 -11 -5 -25 -11 -31 -13 -13 -22 -28 -62 -104
-16 -30 -34 -61 -41 -69 -7 -8 -27 -44 -45 -80 -19 -36 -42 -80 -53 -97 -11
-18 -17 -33 -13 -33 3 0 -3 -9 -14 -21 -10 -11 -34 -51 -52 -87 -18 -37 -50
-96 -71 -131 -21 -34 -38 -65 -38 -67 0 -2 -25 -44 -55 -95 -30 -50 -55 -93
-55 -95 0 -11 -52 -114 -60 -119 -6 -4 -8 -10 -5 -15 3 -5 1 -11 -4 -14 -5 -3
-26 -39 -46 -78 -21 -40 -44 -80 -51 -89 -8 -9 -11 -19 -7 -22 3 -4 2 -7 -3
-7 -6 0 -18 -17 -27 -38 -9 -21 -26 -48 -37 -59 -11 -12 -20 -26 -20 -30 0 -5
-11 -20 -25 -35 -14 -15 -25 -32 -25 -38 0 -5 -5 -10 -11 -10 -5 0 -8 -4 -5
-9 3 -5 -1 -11 -9 -15 -8 -3 -15 -15 -15 -26 0 -11 -4 -20 -10 -20 -5 0 -10
-7 -10 -16 0 -8 -11 -35 -25 -58 -14 -24 -22 -46 -18 -49 3 -4 1 -7 -5 -7 -7
0 -12 -7 -12 -16 0 -9 -5 -12 -12 -8 -9 6 -9 3 1 -9 15 -19 -16 -39 427 277
248 177 284 206 284 225 0 6 4 11 8 11 4 0 15 12 24 28 9 15 25 37 35 49 10
12 27 34 38 49 11 15 26 33 32 40 7 7 13 15 13 18 0 7 92 148 101 156 4 3 16
24 28 47 11 23 25 45 31 48 6 4 8 10 5 15 -3 5 0 12 8 17 7 4 30 42 52 83 21
41 49 91 61 111 13 20 21 39 18 41 -2 3 2 11 11 18 8 7 15 18 15 25 0 8 4 15
8 17 4 2 25 39 45 83 21 44 47 96 58 115 11 19 23 43 26 53 3 9 9 17 14 17 5
0 9 8 9 18 0 25 39 84 50 77 6 -3 10 1 10 9 0 10 8 15 23 14 21 -2 21 -5 -25
-96 -27 -52 -48 -100 -48 -107 0 -7 -4 -15 -9 -17 -5 -1 -11 -10 -13 -18 -2
-8 -5 -17 -8 -20 -3 -3 -52 -97 -108 -210 -57 -113 -107 -209 -111 -215 -5 -5
-48 -86 -96 -180 -48 -93 -90 -174 -93 -180 -3 -5 -7 -18 -8 -30 -1 -11 -48
-113 -103 -226 -56 -113 -101 -218 -101 -232 0 -14 -6 -30 -14 -34 -18 -10
-76 -119 -76 -142 0 -12 2 -13 9 -3 4 8 10 13 12 12 7 -3 48 15 214 92 88 41
175 81 192 89 18 7 33 17 33 20 0 6 144 252 391 667 77 128 139 237 139 243 0
6 5 7 10 4 6 -3 14 3 18 15 4 11 32 46 62 76 56 57 102 84 108 65 2 -6 12 -7
27 -1 16 6 25 5 28 -3 4 -10 -94 -277 -212 -582 -10 -27 -31 -80 -45 -118 -31
-78 -68 -222 -64 -244 4 -17 188 -97 199 -86 28 32 255 347 339 471 99 146
119 173 121 155 0 -4 2 -15 3 -23 3 -16 13 -114 22 -225 3 -38 7 -72 9 -73 2
-2 39 12 82 31 43 19 132 58 198 87 66 28 134 58 150 65 17 8 89 39 160 70
l130 56 70 -37 71 -37 26 24 c14 13 72 55 129 93 57 39 116 80 131 92 23 18
35 21 90 17 61 -5 64 -4 93 28 17 19 81 90 143 158 62 68 129 136 150 150 20
15 136 88 258 163 183 113 235 150 306 219 46 46 111 109 143 139 55 52 56 53
29 15 -15 -22 -43 -55 -61 -73 -74 -72 -163 -238 -171 -317 -3 -27 -8 -52 -11
-55 -13 -10 -31 -50 -23 -50 10 0 16 -68 14 -165 0 -56 -7 -86 -35 -150 -33
-77 -40 -102 -52 -190 -4 -22 -8 -51 -10 -65 -6 -32 -18 -132 -18 -145 0 -5
22 -45 49 -88 27 -42 54 -85 59 -95 6 -10 32 -52 58 -95 55 -87 53 -87 112 3
17 25 33 47 38 48 4 2 7 10 7 17 0 7 3 15 8 17 4 1 38 44 75 95 37 50 72 93
76 95 5 2 34 26 64 53 78 70 110 95 125 95 7 0 10 4 7 10 -3 5 6 12 20 16 14
3 25 10 25 15 0 5 9 9 20 9 11 0 20 3 20 8 0 10 162 92 184 92 6 0 23 6 38 14
56 30 102 35 376 40 l282 6 65 30 c36 17 72 30 80 30 7 0 17 5 20 10 3 6 11
10 16 10 6 0 7 -5 3 -11 -4 -7 1 -7 16 1 18 10 21 9 15 -1 -6 -9 -3 -11 8 -6
10 4 25 -3 39 -19 13 -14 32 -34 42 -45 12 -11 15 -19 8 -19 -9 0 -7 -8 4 -25
13 -19 16 -48 16 -125 -1 -56 -3 -104 -6 -108 -2 -4 -7 -25 -10 -47 -15 -99
-19 -121 -24 -130 -7 -10 -10 -23 -16 -65 -2 -14 -5 -25 -6 -25 -5 0 -21 -93
-21 -131 -1 -17 19 -70 45 -122 l46 -92 6 -173 c5 -149 8 -176 25 -199 10 -15
19 -29 19 -31 0 -1 -24 -21 -52 -42 -82 -62 -89 -68 -112 -95 -12 -13 -33 -37
-48 -53 -16 -16 -28 -32 -28 -36 0 -5 -17 -23 -37 -40 -21 -18 -66 -58 -101
-89 -35 -31 -67 -57 -72 -57 -4 0 -23 -11 -42 -25 -75 -55 -303 -187 -309
-178 -4 7 -14 6 -29 -2 -12 -6 -28 -9 -35 -6 -8 3 -16 2 -19 -2 -5 -9 -126 -6
-181 4 -90 16 -185 5 -250 -29 -22 -12 -44 -22 -50 -22 -5 -1 -9 -6 -7 -13 1
-7 -2 -12 -7 -12 -5 0 -24 -12 -42 -27 -31 -27 -37 -28 -138 -27 l-106 1 -40
-45 c-22 -25 -52 -59 -68 -74 -15 -16 -25 -33 -23 -37 3 -4 31 -9 63 -10 65
-2 63 -2 116 2 21 1 40 0 43 -4 2 -4 19 -3 36 2 18 5 34 5 37 1 4 -5 76 -9
161 -9 85 -1 161 -2 168 -2 10 -1 7 -9 -7 -30 -12 -16 -21 -32 -21 -36 0 -7
-88 -95 -96 -95 -12 0 -93 -68 -87 -74 3 -3 0 -6 -8 -6 -30 -1 -67 -81 -50
-109 14 -21 121 -13 121 10 0 5 5 9 11 9 6 0 17 7 26 15 8 8 18 13 22 10 5 -2
14 7 21 20 7 14 17 25 22 25 5 0 19 9 31 21 58 55 165 98 168 67 5 -37 3 -56
-6 -88 -6 -19 -10 -42 -10 -50 2 -23 15 -60 23 -61 51 -10 167 5 178 22 2 4
12 6 22 3 13 -5 14 -4 4 4 -11 7 -5 22 25 73 43 70 97 180 95 192 -1 4 2 7 8
7 5 0 10 6 10 13 0 16 57 71 85 82 45 18 148 21 355 13 82 -3 103 -22 86 -77
-5 -20 -13 -38 -16 -41 -17 -15 -49 -68 -43 -74 3 -3 1 -6 -5 -6 -7 0 -12 -9
-12 -20 0 -11 -4 -20 -10 -20 -16 0 -43 -68 -36 -95 5 -20 13 -25 38 -25 36 0
109 45 103 63 -2 7 30 39 71 72 41 33 87 70 102 83 15 12 105 73 200 134 107
70 171 117 168 125 -3 8 5 15 22 19 15 3 45 11 67 17 22 6 47 12 55 13 17 3
494 121 524 130 11 4 16 2 12 -4 -3 -5 10 -4 30 3 19 6 78 52 131 101 53 49
108 100 123 114 15 14 76 70 136 126 60 55 135 125 168 155 32 30 73 68 90 84
18 17 81 75 141 130 60 55 129 119 154 143 39 36 51 42 80 38 18 -2 37 -8 42
-13 4 -4 9 -41 11 -80 2 -54 5 -70 14 -62 9 7 12 3 12 -13 0 -24 33 -228 62
-383 5 -27 12 -68 15 -90 3 -22 7 -51 10 -65 2 -14 7 -41 9 -60 6 -37 13 -78
21 -120 3 -14 7 -43 10 -65 3 -22 7 -49 9 -60 3 -11 5 -27 5 -36 1 -21 35 -59
53 -59 8 0 19 -5 25 -11 19 -19 67 0 204 83 74 44 143 86 154 92 11 7 38 23
60 37 22 13 45 24 50 24 28 0 82 -41 164 -125 50 -51 91 -89 91 -86 0 4 13 -2
29 -13 16 -12 35 -21 43 -21 8 0 18 -4 24 -10 5 -5 19 -11 31 -13 11 -1 29 -9
39 -17 16 -13 17 -13 9 0 -6 12 -5 13 6 3 17 -17 52 -16 114 1 154 43 241 70
250 77 6 4 10 55 9 123 l-1 115 22 -15 c12 -8 25 -11 28 -8 4 4 12 2 20 -4 19
-16 109 -53 102 -43 -9 15 68 -26 92 -48 21 -20 349 -191 366 -191 4 0 6 5 5
12 -2 7 60 28 172 55 96 24 179 48 184 53 10 10 17 90 7 90 -4 0 -8 7 -8 15 0
8 4 12 8 9 4 -2 10 0 14 5 8 14 35 2 35 -15 0 -8 7 -14 15 -14 8 0 15 -4 15
-9 0 -9 62 -73 118 -123 30 -26 32 -26 164 -23 73 2 197 5 276 6 78 2 141 6
140 10 -3 7 -91 102 -227 244 -117 122 -120 117 47 75 81 -21 179 -47 217 -58
95 -28 114 -30 312 -37 l173 -6 -4 55 c-4 64 4 70 88 66 143 -6 141 -6 139 15
-2 25 -12 94 -17 120 -2 11 -7 38 -11 60 -4 22 -9 49 -11 60 -2 11 -15 85 -29
165 -48 265 -56 313 -52 317 4 3 247 -147 395 -244 29 -19 55 -33 56 -31 3 4
35 126 41 155 2 13 1 23 -3 23 -4 0 -21 13 -38 28 -17 15 -46 39 -65 55 -18
15 -30 27 -26 27 3 0 -7 13 -23 30 -16 17 -36 30 -45 30 -8 0 -15 4 -15 10 0
5 -17 17 -37 25 -20 9 -52 27 -70 41 -18 14 -33 21 -33 17 0 -4 -4 -3 -8 3 -4
6 -39 23 -79 39 -69 27 -113 56 -113 74 0 10 56 32 62 25 2 -2 13 -5 24 -7 10
-2 27 -8 37 -12 17 -7 102 -2 167 9 14 2 97 16 185 31 88 14 166 28 174 31 7
2 -62 49 -155 104 -93 55 -176 104 -184 110 -8 5 -40 23 -70 41 -30 17 -58 36
-62 42 -14 23 1 58 38 88 66 52 97 76 159 123 33 25 66 51 74 58 8 7 24 18 35
25 17 9 18 13 6 17 -13 4 -156 36 -225 50 -27 6 -132 30 -240 54 -49 12 -105
24 -124 27 -19 3 -38 8 -41 10 -4 3 -25 8 -46 11 -22 3 -43 7 -49 9 -5 1 -27
5 -47 10 -21 4 -38 11 -38 15 0 4 -7 11 -16 14 -10 4 -13 2 -8 -7 6 -9 5 -9
-8 0 -8 7 -18 10 -21 6 -4 -3 -7 -1 -7 5 0 7 -7 12 -15 12 -33 0 -4 54 57 108
9 9 15 19 12 24 -3 4 1 8 8 8 17 1 83 68 75 76 -4 4 -7 2 -7 -5 0 -7 -5 -9
-12 -5 -6 4 -43 8 -82 9 -284 9 -274 10 -341 -20 -16 -7 -108 -46 -204 -85
-187 -77 -189 -77 -351 -55 -19 3 -66 7 -105 10 -116 8 -151 15 -263 52 -262
85 -331 106 -397 124 -38 11 -77 22 -85 24 -49 14 -180 46 -205 50 -52 9 -97
27 -177 66 -43 22 -82 39 -87 39 -6 0 -45 21 -88 46 -95 56 -146 84 -288 159
-60 32 -153 81 -205 110 -236 129 -377 199 -418 206 -24 5 -55 14 -69 21 -27
14 -80 98 -62 98 8 0 8 4 1 13 -6 7 -13 33 -16 59 -5 41 -4 46 17 52 25 7 218
58 402 106 139 36 283 74 515 135 91 24 235 62 320 84 85 22 200 52 255 66 55
15 115 27 133 27 25 0 32 4 28 14 -6 16 -9 16 109 -11 39 -8 88 -19 110 -24
22 -5 154 -34 294 -66 230 -52 261 -56 320 -49 36 4 68 8 71 9 5 1 112 17 135
20 6 0 42 5 80 10 39 5 73 8 77 7 6 -1 49 45 88 94 100 126 271 335 292 359
16 16 28 34 28 38 0 5 4 6 8 3 4 -3 22 21 40 53 36 66 61 81 138 85 45 2 64
11 189 99 77 53 155 112 174 132 18 20 49 42 67 50 30 12 435 291 687 472 48
35 93 61 98 57 7 -4 9 1 4 15 -5 16 -2 21 12 22 10 0 25 2 33 3 8 2 69 6 135
10 66 4 141 9 168 12 39 5 68 -1 165 -35 353 -122 648 -221 666 -224 12 -1 48
-16 81 -33 46 -23 71 -30 110 -28 28 1 88 3 135 4 47 2 90 5 97 7 20 8 -4 43
-63 96 -30 26 -53 47 -51 47 2 0 -30 34 -70 75 -41 41 -78 75 -84 75 -5 0 -9
4 -9 10 0 13 -57 70 -70 70 -6 0 -8 5 -5 10 3 6 -1 10 -9 10 -9 0 -16 5 -16
10 0 6 -7 10 -15 10 -8 0 -15 5 -15 10 0 6 -7 10 -15 10 -8 0 -15 4 -15 8 0 4
-13 15 -29 25 -16 10 -45 33 -65 51 -19 19 -37 32 -40 28 -3 -3 -6 0 -6 5 0 6
-20 24 -45 40 -25 15 -45 31 -45 36 0 4 -4 7 -10 7 -10 0 -44 26 -82 63 -10 9
-21 17 -25 17 -5 1 -18 10 -31 20 -12 11 -25 20 -28 20 -8 0 -145 91 -162 107
-7 7 -19 13 -27 13 -7 0 -15 4 -17 9 -5 16 -68 56 -148 97 -41 21 -76 41 -78
46 -2 4 -9 8 -16 8 -7 0 -21 8 -32 18 -22 20 -115 68 -126 64 -5 -1 -8 3 -8 8
0 5 -3 9 -7 8 -8 -2 -64 23 -73 32 -4 4 -34 22 -95 54 -11 6 -28 20 -37 30
-10 10 -18 16 -18 13 0 -3 -34 14 -75 38 -42 25 -80 45 -85 45 -6 0 -10 4 -10
8 0 5 -18 17 -40 27 -22 10 -40 21 -40 25 0 4 -17 16 -37 25 -21 10 -54 28
-74 41 -20 13 -39 21 -41 18 -3 -2 -11 2 -18 11 -7 8 -21 15 -31 15 -11 0 -19
3 -19 8 0 4 -22 15 -50 25 -27 10 -55 23 -62 30 -8 6 -20 13 -28 15 -13 3
-126 53 -162 73 -10 5 -25 9 -33 9 -8 0 -23 4 -33 10 -15 9 -67 31 -82 35 -25
6 -65 22 -117 47 -34 16 -72 30 -83 31 -11 1 -20 4 -20 7 0 4 -6 7 -12 8 -15
1 -37 7 -58 15 -78 29 -117 41 -126 39 -6 -1 -307 97 -670 219 -362 121 -672
225 -687 229 -16 5 -36 15 -44 22 -15 12 -25 15 -68 22 -11 2 -20 4 -20 6 0 1
-11 3 -25 5 -106 12 -146 19 -151 27 -4 7 -84 8 -92 2z m-1632 -6374 c3 -5 1
-10 -4 -10 -6 0 -11 5 -11 10 0 6 2 10 4 10 3 0 8 -4 11 -10z"/>
<path d="M16450 11130 c0 -5 7 -10 15 -10 8 0 15 5 15 10 0 6 -7 10 -15 10 -8
0 -15 -4 -15 -10z"/>
<path d="M2840 6781 c-14 -3 -42 -6 -62 -6 -21 1 -38 -2 -38 -5 0 -3 -10 -6
-22 -7 -59 -4 -178 -26 -178 -33 0 -5 -14 -12 -32 -15 -17 -4 -38 -14 -46 -21
-7 -8 -22 -14 -32 -14 -10 0 -20 -7 -24 -15 -3 -8 -12 -15 -21 -15 -8 0 -15
-4 -15 -10 0 -5 -9 -10 -20 -10 -10 0 -24 -9 -30 -20 -6 -11 -17 -20 -24 -20
-8 0 -16 -7 -20 -15 -3 -8 -11 -15 -18 -15 -6 0 -31 -20 -55 -45 -23 -25 -46
-45 -52 -45 -5 0 -13 -10 -16 -22 -7 -23 -51 -68 -66 -68 -4 0 -15 -18 -25
-40 -10 -22 -21 -40 -25 -40 -14 0 -68 -97 -84 -152 -9 -32 -20 -58 -25 -58
-5 0 -12 -16 -16 -35 -3 -19 -10 -35 -14 -35 -4 0 -13 -33 -19 -74 -7 -41 -18
-77 -24 -79 -18 -6 -17 -559 1 -564 6 -3 12 -17 12 -32 0 -36 21 -144 30 -151
3 -3 15 -43 25 -89 11 -46 26 -86 33 -88 6 -3 12 -9 12 -14 0 -6 9 -20 20 -31
11 -12 25 -39 31 -60 5 -21 14 -38 19 -38 4 0 11 -13 15 -30 4 -16 17 -40 31
-52 13 -13 24 -28 24 -33 0 -6 25 -34 55 -62 30 -29 55 -57 55 -63 0 -5 7 -10
15 -10 8 0 15 -5 15 -10 0 -6 8 -14 18 -17 9 -4 22 -11 27 -15 6 -5 21 -17 34
-28 13 -11 32 -20 43 -20 10 0 18 -4 18 -8 0 -4 14 -13 30 -19 30 -11 32 -10
60 29 17 23 30 46 30 52 0 6 9 19 20 29 11 9 20 24 20 32 0 8 3 15 8 15 4 0
13 9 20 21 11 17 11 20 0 14 -7 -5 -3 2 10 14 12 12 22 26 22 31 0 10 20 36
50 68 8 9 14 17 13 19 -4 5 31 64 54 93 12 15 20 30 16 33 -3 4 2 9 11 13 9 3
14 10 11 14 -2 4 5 18 18 32 12 13 31 41 42 61 11 20 24 37 29 37 5 0 7 3 4 6
-6 5 26 60 51 90 16 19 2 53 -20 49 -10 -2 -19 0 -19 5 0 5 -23 24 -50 42 -28
18 -53 41 -56 51 -3 9 -9 15 -14 12 -5 -3 -14 5 -21 17 -7 13 -18 27 -25 31
-8 4 -14 12 -14 18 0 5 -10 20 -21 32 -12 12 -18 16 -14 8 5 -9 4 -12 -2 -8
-7 5 -8 20 -3 42 4 19 6 35 3 35 -3 0 0 7 7 15 7 8 8 15 3 15 -5 0 -10 7 -10
15 0 8 3 15 7 15 3 0 5 27 5 60 0 33 2 60 5 60 3 0 12 20 19 46 7 25 20 51 27
59 8 7 14 16 14 20 0 3 13 19 29 34 16 16 27 32 24 35 -4 3 1 6 10 6 10 0 17
5 17 11 0 5 5 7 10 4 6 -3 10 -2 10 3 0 11 29 21 80 28 67 10 104 3 181 -36
26 -13 41 -15 54 -7 12 6 16 6 11 -1 -3 -6 -2 -12 4 -14 5 -1 11 -21 12 -43 2
-22 10 -48 17 -57 8 -10 17 -30 19 -45 2 -15 7 -30 10 -33 17 -12 17 -296 0
-306 -4 -3 -8 -16 -8 -30 0 -13 -4 -32 -9 -42 -14 -26 -24 -55 -25 -72 0 -8
-11 -26 -23 -39 -12 -14 -20 -28 -18 -32 3 -4 -2 -12 -10 -19 -8 -7 -15 -18
-15 -25 0 -6 -9 -20 -20 -30 -11 -10 -20 -23 -20 -30 0 -6 -8 -20 -17 -31 -24
-27 -42 -55 -49 -76 -4 -10 -11 -18 -16 -18 -5 0 -6 -4 -3 -10 3 -5 1 -10 -4
-10 -6 0 -11 -9 -11 -20 0 -11 -7 -20 -16 -20 -8 0 -12 -4 -9 -10 3 -5 2 -10
-3 -10 -5 0 -17 -15 -26 -32 -16 -32 -189 -300 -253 -392 -18 -26 -33 -51 -33
-57 0 -5 -4 -9 -10 -9 -5 0 -10 -6 -10 -13 0 -8 -11 -24 -25 -37 -13 -12 -22
-27 -18 -33 3 -5 -5 -19 -18 -31 -13 -11 -25 -27 -27 -35 -1 -7 -9 -20 -17
-28 -8 -8 -15 -20 -15 -28 0 -7 -7 -15 -15 -19 -8 -3 -15 -12 -15 -20 0 -7 -7
-17 -16 -20 -8 -3 -13 -10 -10 -15 3 -5 -1 -14 -9 -21 -8 -7 -15 -17 -15 -22
0 -5 -11 -21 -25 -36 -14 -15 -25 -35 -25 -45 0 -10 -4 -15 -10 -12 -5 3 -10
1 -10 -4 0 -6 0 -13 0 -16 0 -3 -9 -15 -20 -27 -41 -47 -48 -57 -55 -77 -3
-12 -11 -21 -16 -21 -6 0 -8 -4 -5 -9 3 -5 -1 -11 -9 -15 -8 -3 -15 -12 -15
-21 0 -8 -4 -15 -10 -15 -5 0 -10 -7 -10 -16 0 -9 -11 -25 -25 -36 -14 -11
-23 -23 -20 -28 3 -5 -2 -15 -10 -23 -8 -9 -15 -20 -15 -26 0 -6 -4 -11 -8
-11 -4 0 -16 -15 -27 -32 -10 -18 -27 -42 -37 -52 -9 -10 -15 -22 -13 -26 2
-4 -9 -20 -25 -37 -16 -16 -32 -41 -35 -56 -4 -15 -11 -25 -15 -22 -4 3 -12
-8 -18 -23 -5 -16 -17 -36 -27 -45 -9 -9 -13 -17 -9 -17 4 0 -6 -12 -22 -26
-16 -15 -24 -24 -17 -20 7 4 10 -1 8 -11 -2 -10 -4 -21 -4 -25 -1 -5 -7 -8
-15 -8 -8 0 -18 -4 -21 -10 -3 -6 1 -7 9 -4 9 3 16 2 16 -4 0 -5 -7 -12 -15
-16 -9 -3 -12 -12 -9 -21 4 -9 13 -14 20 -11 8 3 14 1 14 -4 0 -5 353 -9 850
-9 646 0 850 3 850 12 0 7 4 6 10 -3 5 -8 10 -10 10 -5 0 6 18 11 40 11 21 1
37 -3 34 -7 -3 -5 67 -8 155 -8 l161 1 0 39 c0 21 4 39 9 39 5 0 9 12 9 28 0
15 3 38 7 52 12 42 17 91 18 172 1 42 4 75 7 73 13 -8 31 13 36 40 3 16 7 32
10 37 5 8 11 30 20 73 17 87 22 106 31 117 5 7 8 25 7 41 -2 15 2 27 8 27 6 0
8 11 6 25 -3 14 -1 28 3 31 5 3 9 17 9 32 0 15 4 34 10 42 10 16 -6 43 -21 34
-5 -3 -9 0 -9 7 0 8 -4 8 -15 -1 -12 -10 -15 -10 -15 1 0 12 -2 12 -9 1 -4 -8
-12 -14 -16 -14 -4 0 -12 6 -16 14 -7 10 -9 10 -9 0 0 -7 -5 -10 -11 -7 -17
11 -59 13 -65 3 -3 -5 -11 -4 -19 2 -10 8 -15 8 -20 -1 -6 -8 -10 -7 -16 2 -7
12 -9 12 -9 0 0 -11 -3 -11 -15 -1 -12 10 -15 10 -15 -1 0 -10 -3 -10 -11 -2
-8 8 -20 8 -35 3 -16 -7 -24 -6 -24 1 0 8 -4 8 -14 0 -11 -9 -15 -9 -19 1 -4
10 -6 10 -6 -1 -1 -11 -4 -11 -16 -1 -12 10 -15 10 -15 0 0 -10 -3 -10 -15 0
-12 10 -15 10 -15 0 0 -9 -3 -10 -13 -1 -8 6 -16 8 -20 5 -10 -10 -57 -11 -63
-2 -4 6 -10 5 -15 -3 -7 -12 -9 -12 -9 0 0 11 -3 11 -15 1 -8 -7 -15 -8 -15
-3 0 5 -16 9 -35 9 -19 0 -35 -5 -35 -11 0 -5 -4 -4 -9 4 -6 9 -11 10 -15 2
-5 -8 -13 -8 -27 0 -15 7 -24 7 -34 -1 -10 -8 -14 -8 -18 2 -4 9 -6 10 -6 1
-1 -17 -31 -4 -31 12 0 8 15 28 33 46 17 18 31 36 30 39 -1 4 16 27 37 51 22
24 40 50 40 57 0 7 5 10 10 7 6 -3 10 -1 10 5 0 18 36 60 45 52 5 -4 6 -2 2 4
-3 5 21 44 54 85 33 40 62 84 65 97 4 12 9 22 14 22 4 0 15 19 26 43 10 23 24
45 30 50 7 4 15 20 19 36 3 16 13 35 21 42 8 6 14 18 14 25 0 8 5 14 10 14 6
0 10 6 10 13 0 7 11 37 25 65 14 29 25 61 25 72 0 11 4 20 9 20 5 0 13 14 16
32 4 17 15 40 25 50 10 11 23 39 30 64 7 24 16 44 20 44 4 0 10 12 13 28 14
71 29 122 37 122 7 0 11 23 26 163 4 32 11 60 15 63 13 8 11 284 -1 284 -5 0
-10 22 -10 48 0 63 -20 216 -30 222 -4 3 -15 40 -25 83 -10 42 -21 77 -25 77
-8 0 -34 52 -32 63 1 4 -3 7 -8 7 -6 0 -10 5 -10 12 0 18 -33 88 -42 88 -4 0
-14 16 -22 35 -10 23 -22 35 -34 35 -13 0 -22 9 -26 25 -4 14 -11 25 -16 25
-6 0 -10 6 -10 14 0 7 -22 35 -49 62 -62 63 -74 72 -104 79 -14 4 -28 13 -31
21 -3 8 -12 14 -21 14 -8 0 -15 4 -15 9 0 5 -12 12 -26 15 -15 4 -33 14 -41
21 -8 8 -23 15 -34 15 -10 0 -19 4 -19 9 0 5 -17 12 -37 16 -21 4 -40 11 -43
15 -5 9 -120 29 -177 32 -18 1 -33 4 -33 8 0 4 -41 7 -91 8 -50 0 -93 3 -96 6
-4 3 -13 0 -21 -7 -13 -9 -14 -9 -8 1 4 7 1 12 -8 12 -9 0 -16 -6 -16 -12 0
-8 -3 -9 -8 -3 -9 13 -21 14 -52 6z m-880 -3537 c0 -3 -4 -2 -10 1 -5 3 -10 2
-10 -3 0 -6 -6 -12 -14 -15 -9 -4 -12 2 -11 16 1 12 3 23 4 25 2 4 41 -18 41
-24z"/>
<path d="M5625 6739 c-126 -19 -170 -26 -232 -34 -21 -2 -47 -6 -58 -9 -28 -6
-131 -18 -180 -22 -22 -1 -69 -9 -105 -16 l-65 -14 -1 -295 c-1 -161 -1 -557
-1 -879 2 -588 1 -741 -2 -880 -6 -226 -3 -1058 4 -1117 3 -21 0 -33 -8 -33
-8 0 -8 -3 2 -9 11 -7 12 -24 6 -82 -4 -41 -7 -110 -6 -153 1 -44 -2 -82 -8
-85 -6 -4 -2 -16 9 -31 l18 -24 112 18 c61 10 123 20 138 23 15 2 63 9 107 13
178 20 406 57 416 67 13 13 17 3512 5 3550 -4 12 -12 23 -19 26 -7 2 -66 -4
-132 -14z"/>
<path d="M11550 6400 c0 -5 5 -10 11 -10 5 0 7 5 4 10 -3 6 -8 10 -11 10 -2 0
-4 -4 -4 -10z"/>
<path d="M1835 3200 c-3 -5 -2 -10 4 -10 5 0 13 5 16 10 3 6 2 10 -4 10 -5 0
-13 -4 -16 -10z"/>
</g>
</svg>
